# xmcd CD database file
#
# Track frame offsets:
#	150
#	14505
#	26495
#	38212
#	50587
#	61607
#	70860
#	82967
#	96775
#	109040
#	121435
#	134700
#
# Disc length: 1945 seconds
#
# Revision: 0
# Processed by: cddbd v1.4PL0 Copyright (c) Steve Scherf et al.
# Submitted via: CDex 1.51
#
DISCID=9e07970c
DTITLE=Various Artist - Classic Country Hymns, Disc 1
DYEAR=1999
DGENRE=Country
TTITLE0=Old Rugged Cross
TTITLE1=Uncloudy Day
TTITLE2=I Saw The Light
TTITLE3=Standing on the Promises
TTITLE4=When The Saints Go Marching In
TTITLE5=Little Church in The Wildwood
TTITLE6=Wings Of A Dove
TTITLE7=Peace In The Valley
TTITLE8=Take My Hand, Precious Lord
TTITLE9=In The Garden
TTITLE10=Just a Closer Walk
TTITLE11=The Whole World In His Hands
EXTD=YEAR: 1999
EXTT0=
EXTT1=
EXTT2=
EXTT3=
EXTT4=
EXTT5=
EXTT6=
EXTT7=
EXTT8=
EXTT9=
EXTT10=
EXTT11=
PLAYORDER=
